<svg width="267" height="57" viewBox="0 0 267 57" fill="none" xmlns="http://www.w3.org/2000/svg">
<path d="M24.72 40.56C25.52 45.2 24.88 50.4 24.88 55.12C24.88 55.68 24.48 56 23.6 56H19.36C18.4 56 18 55.68 18 55.12C18 51.2 18 47.2 18 43.28C18 38.88 15.84 35.44 14.24 31.44H7.68C9.28 35.44 11.44 38.88 11.44 43.28C11.44 47.2 11.44 51.2 11.44 55.12C11.44 55.68 11.04 56 10.16 56H5.92C4.96 56 4.56 55.68 4.56 55.12C4.56 50.4 5.2 45.2 4.4 40.56C3.68 36.16 0.16 32.56 0.16 28C0.08 23.76 3.36 20.16 4.32 16.16C4.8 13.84 4.56 11.28 4.56 8.96V0.959998C4.56 0.399996 4.96 -3.8147e-06 5.92 -3.8147e-06H10.16C11.04 -3.8147e-06 11.44 0.399996 11.44 0.959998C11.44 4.88 11.44 8.88 11.44 12.8C11.44 17.2 9.28 20.64 7.68 24.64H14.24C15.84 20.64 18 17.2 18 12.8C18 8.88 18 4.88 18 0.959998C18 0.399996 18.4 -3.8147e-06 19.36 -3.8147e-06H23.6C24.48 -3.8147e-06 24.88 0.399996 24.88 0.959998V8.96C24.88 11.28 25.2 13.84 24.64 16.16C23.68 20.16 20.48 23.76 20.48 28C20.48 32.56 24 36.16 24.72 40.56ZM47.4463 -3.8147e-06C48.8863 -3.8147e-06 48.7263 1.2 48.7263 1.2C47.4463 7.76 46.9662 14.48 43.2863 20.16C41.5263 22.72 39.3663 25.44 38.9663 28.64C38.5663 32.16 40.2463 35.68 40.8863 39.12C42.0863 44 41.3663 49.84 41.3663 54.96C41.3663 55.68 40.8063 56.08 40.0863 56.08H35.6063C34.9663 56.08 34.4063 55.68 34.4063 54.96C34.4063 49.84 35.1263 44 33.8463 39.12C31.9263 35.68 28.8063 32.48 27.7663 28.64C26.9663 25.76 27.9263 22.96 28.6463 20.16C30.1663 13.92 27.7663 7.36 26.4863 1.2C26.3262 0.48 26.7263 -3.8147e-06 27.8463 -3.8147e-06H32.5663C33.3663 -3.8147e-06 33.7663 0.319997 33.8463 0.879999C35.0463 7.28 37.2063 14 35.4463 20.4C34.7263 21.84 34.0863 23.28 33.5263 24.8H34.5663C35.1263 23.28 35.7663 21.84 36.4863 20.4C40.0863 14.48 40.4063 7.68 41.4463 0.959998C41.6063 0.399996 42.0063 -3.8147e-06 42.8063 -3.8147e-06H47.4463ZM67.355 28C67.355 31.04 68.955 33.68 70.155 36.32C71.835 40 71.755 43.36 71.755 47.28C71.755 51.68 68.635 56 63.995 56.08H52.795C51.835 56.08 51.435 55.68 51.435 55.12C51.435 50.4 52.075 45.2 51.275 40.56C50.555 36.16 47.035 32.56 47.035 28.08C46.955 23.76 50.235 20.16 51.195 16.16C51.675 13.84 51.435 11.28 51.435 8.96V0.959998C51.435 0.399996 51.835 0.0799952 52.795 0.0799952H63.995C68.635 0.0799952 71.755 4.4 71.755 8.8C71.755 12.72 71.835 16.08 70.155 19.76C68.955 22.4 67.355 25.04 67.355 28ZM63.035 35.76C61.915 33.36 60.475 30.8 60.475 28C60.475 25.52 61.675 23.2 62.715 20.96C64.235 17.68 64.875 14.96 64.875 11.36C64.875 9.68 63.915 6.96 61.835 7.04H58.315C58.315 10.96 58.715 14.88 57.195 18.64C55.915 21.68 53.915 24.72 53.915 28.08C53.915 31.68 56.235 34.88 57.515 38.16C58.795 41.6 58.315 45.52 58.315 49.12H61.835C63.915 49.2 64.875 46.4 64.875 44.72C64.875 41.28 64.475 38.88 63.035 35.76ZM94.8444 36.4C97.3244 42.16 96.3644 48.96 96.3644 55.12C96.3644 55.68 95.9644 56.08 95.0844 56.08H90.8444C89.8844 56.08 89.4844 55.68 89.4844 55.12C89.4844 48.64 90.3644 41.84 87.6444 35.84C86.7644 34.08 84.8444 31.52 82.6844 31.44H79.1644C80.7644 35.44 82.9244 38.88 82.9244 43.28C82.9244 47.2 82.9244 51.2 82.9244 55.12C82.9244 55.68 82.5244 56.08 81.6444 56.08H77.4044C76.4444 56.08 76.0444 55.68 76.0444 55.12C76.0444 50.4 76.6844 45.2 75.8844 40.56C75.1644 36.16 71.6444 32.56 71.6444 28.08C71.5644 23.76 74.8444 20.16 75.8044 16.16C76.2844 13.84 76.0444 11.28 76.0444 8.96V0.959998C76.0444 0.399996 76.4444 0.0799952 77.4044 0.0799952H88.6044C93.2444 0.0799952 96.3644 4.4 96.3644 8.8C96.3644 12.72 96.3644 16 94.7644 19.76C92.8444 24 89.0044 27.12 84.2044 27.12H83.8844C83.8044 27.76 83.8044 28.32 83.8844 28.96H84.1244C88.9244 28.96 92.8444 32.16 94.8444 36.4ZM79.1644 24.64H82.6844C84.8444 24.56 86.7644 22 87.6444 20.24C89.0844 17.2 89.4844 14.64 89.4844 11.36C89.4844 9.68 88.5244 6.96 86.4444 7.04H82.9244C82.9244 9.84 83.3244 13.04 82.6844 15.84C82.1244 18.88 80.2844 21.68 79.1644 24.64ZM116.418 28C116.418 30.96 118.018 33.6 119.218 36.24C120.818 39.84 120.818 43.12 120.818 47.04C120.818 51.6 117.618 56 112.818 56H108.578C103.698 56.08 100.498 51.6 100.498 47.04C100.498 43.12 100.498 39.84 98.8175 36.24C97.6175 33.6 96.0975 30.96 96.0975 28C96.0975 25.12 97.6175 22.4 98.8175 19.84C100.498 16.24 100.498 12.96 100.498 9.04C100.498 4.48 103.698 -3.8147e-06 108.578 -3.8147e-06H112.818C117.618 0.0799952 120.818 4.48 120.818 9.04C120.818 12.96 120.818 16.24 119.218 19.84C118.018 22.4 116.418 25.12 116.418 28ZM112.098 35.76C110.978 33.36 109.458 30.8 109.538 28C109.538 25.52 110.738 23.2 111.778 20.96C113.298 17.68 113.938 14.96 113.938 11.36C113.938 9.68 112.978 6.96 110.898 7.04H110.498C108.418 7.04 107.298 9.6 107.378 11.36C107.378 14.96 106.738 17.68 105.218 20.96C104.178 23.2 102.978 25.52 102.978 28C102.898 30.8 104.418 33.36 105.538 35.76C106.978 38.88 107.378 41.28 107.378 44.72C107.298 46.48 108.418 49.04 110.498 49.12H110.898C112.978 49.2 113.938 46.4 113.938 44.72C113.938 41.28 113.538 38.88 112.098 35.76ZM145.267 40.56C146.067 45.2 145.427 50.4 145.427 55.12C145.427 55.68 145.027 56 144.147 56H139.907C138.947 56 138.547 55.68 138.547 55.12C138.547 51.2 138.547 47.2 138.547 43.28C138.547 38.88 136.387 35.44 134.787 31.44H128.227C129.827 35.44 131.987 38.88 131.987 43.28C131.987 47.2 131.987 51.2 131.987 55.12C131.987 55.68 131.587 56 130.707 56H126.467C125.507 56 125.107 55.68 125.107 55.12C125.107 50.4 125.747 45.2 124.947 40.56C124.227 36.16 120.707 32.56 120.707 28C120.627 23.76 123.907 20.16 124.867 16.16C125.347 13.84 125.107 11.28 125.107 8.96V0.959998C125.107 0.399996 125.507 -3.8147e-06 126.467 -3.8147e-06H130.707C131.587 -3.8147e-06 131.987 0.399996 131.987 0.959998C131.987 4.88 131.987 8.88 131.987 12.8C131.987 17.2 129.827 20.64 128.227 24.64H134.787C136.387 20.64 138.547 17.2 138.547 12.8C138.547 8.88 138.547 4.88 138.547 0.959998C138.547 0.399996 138.947 -3.8147e-06 139.907 -3.8147e-06H144.147C145.027 -3.8147e-06 145.427 0.399996 145.427 0.959998V8.96C145.427 11.28 145.747 13.84 145.187 16.16C144.227 20.16 141.027 23.76 141.027 28C141.027 32.56 144.547 36.16 145.267 40.56ZM165.636 28C165.636 30.96 167.236 33.6 168.436 36.24C170.036 39.84 170.036 43.12 170.036 47.04C170.036 51.6 166.836 56 162.036 56H157.796C152.916 56.08 149.716 51.6 149.716 47.04C149.716 43.12 149.716 39.84 148.036 36.24C146.836 33.6 145.316 30.96 145.316 28C145.316 25.12 146.836 22.4 148.036 19.84C149.716 16.24 149.716 12.96 149.716 9.04C149.716 4.48 152.916 -3.8147e-06 157.796 -3.8147e-06H162.036C166.836 0.0799952 170.036 4.48 170.036 9.04C170.036 12.96 170.036 16.24 168.436 19.84C167.236 22.4 165.636 25.12 165.636 28ZM161.316 35.76C160.196 33.36 158.676 30.8 158.756 28C158.756 25.52 159.956 23.2 160.996 20.96C162.516 17.68 163.156 14.96 163.156 11.36C163.156 9.68 162.196 6.96 160.116 7.04H159.716C157.636 7.04 156.516 9.6 156.596 11.36C156.596 14.96 155.956 17.68 154.436 20.96C153.396 23.2 152.196 25.52 152.196 28C152.116 30.8 153.636 33.36 154.756 35.76C156.196 38.88 156.596 41.28 156.596 44.72C156.516 46.48 157.636 49.04 159.716 49.12H160.116C162.196 49.2 163.156 46.4 163.156 44.72C163.156 41.28 162.756 38.88 161.316 35.76ZM204.724 32.56C206.324 36.4 208.084 39.44 208.084 43.68C208.164 47.84 208.084 51.92 208.084 56.08H201.204V44.32C201.204 40.24 200.004 37.44 198.404 33.68C196.804 30.24 196.324 27.28 197.844 23.68C198.484 21.92 199.444 20.24 200.164 18.48C201.124 16.08 201.204 13.92 201.204 11.36C201.204 9.68 200.244 6.96 198.164 7.04H197.764C195.764 7.04 194.644 9.36 194.644 11.04C194.644 13.68 194.644 15.84 193.684 18.32C192.964 20.08 192.084 21.76 191.364 23.44C189.844 27.12 190.164 30.08 191.764 33.52C193.444 37.28 194.644 40.16 194.644 44.24V56H187.764V44.24C187.764 40.16 186.484 37.28 184.884 33.6C183.284 30.08 182.964 27.12 184.404 23.44C185.124 21.76 186.084 20.08 186.804 18.32C187.764 15.84 187.764 13.68 187.764 11.12C187.684 9.28 186.644 7.12 184.724 7.04H184.244C182.244 7.04 181.124 9.6 181.204 11.36C181.204 13.92 181.124 16.08 180.164 18.48C179.444 20.24 178.484 21.92 177.764 23.68C176.324 27.28 176.804 30.24 178.324 33.68C180.004 37.44 181.204 40.24 181.204 44.32V56H174.324C174.324 51.92 174.324 47.84 174.324 43.68C174.324 39.44 172.484 36.4 170.964 32.56C169.444 28.72 170.004 25.6 171.684 21.92C172.484 20.08 173.524 18.24 174.004 16.16C174.564 13.84 174.324 11.36 174.324 9.04C174.324 4.48 177.524 -3.8147e-06 182.324 -3.8147e-06H186.564C188.244 0.0799952 189.844 0.639997 191.204 1.6C192.564 0.559999 194.084 0.159999 195.844 -3.8147e-06H200.084C204.884 0.0799952 208.084 4.48 208.084 9.04C208.084 11.36 208.404 13.84 207.844 16.16C207.364 18.24 206.324 20.08 205.444 21.92C203.764 25.6 203.204 28.72 204.724 32.56ZM219.171 40.56C219.971 45.2 219.331 50.4 219.331 55.12C219.331 55.68 218.931 56 218.211 56H213.731C213.011 56 212.451 55.6 212.451 55.12C212.451 50.4 213.091 45.2 212.291 40.56C211.571 36.16 208.051 32.56 208.051 28C207.971 23.76 211.251 20.16 212.211 16.16C212.691 13.84 212.451 11.28 212.451 8.96V0.959998C212.451 0.399996 212.851 -3.8147e-06 213.811 -3.8147e-06H218.051C218.931 -3.8147e-06 219.331 0.399996 219.331 0.959998V8.96C219.331 11.28 219.651 13.84 219.091 16.16C218.131 20.16 214.851 23.76 214.931 28C214.931 32.56 218.451 36.16 219.171 40.56ZM244.48 5.6C244.48 6.72 243.84 7.04 243.12 7.04H231.44C231.44 9.84 231.84 13.04 231.2 15.84C230.64 18.88 228.8 21.68 227.68 24.64H235.84C236.72 24.64 237.04 24.88 236.88 25.44C236.32 27.12 236.4 28.96 236.88 30.64C237.04 31.2 236.72 31.44 235.84 31.44H227.68C228.8 34.4 230.64 37.2 231.28 40.32C231.84 43.12 231.44 46.24 231.44 49.12H243.12C243.84 49.12 244.48 49.52 244.48 50.08V55.12C244.48 55.6 243.84 56 243.12 56H225.92C224.96 56 224.56 55.68 224.56 55.12C224.56 50.4 225.2 45.2 224.4 40.56C223.68 36.16 220.16 32.56 220.16 28C220.08 23.76 223.36 20.16 224.32 16.16C224.8 13.84 224.56 11.28 224.56 8.96V0.959998C224.56 0.399996 224.96 -3.8147e-06 225.92 -3.8147e-06H243.12C243.84 -3.8147e-06 244.48 0.399996 244.48 1.28V5.6ZM265.895 39.84C266.375 42.24 266.215 44.64 266.215 47.04C266.215 51.6 262.935 56 258.135 56.08H253.895C249.175 56.08 245.895 51.6 245.895 47.04C245.895 45.36 245.895 43.6 245.895 41.92C245.895 41.44 246.375 40.88 247.095 40.88H251.335C252.135 40.88 252.775 41.44 252.775 41.92C252.775 43.04 252.775 43.6 252.775 44.72C252.695 46.48 253.735 49.04 255.815 49.12H256.295C258.375 49.2 259.335 46.4 259.335 44.72C259.335 43.6 259.335 42.48 259.335 41.36C259.255 40.32 258.615 39.12 257.815 38.4C254.615 35.6 251.015 32.96 248.455 29.44C245.975 26.08 245.015 21.52 245.415 17.44C245.575 15.36 245.735 13.2 245.815 11.12C245.895 8.88 245.895 6.64 246.935 4.56C248.295 1.92 250.935 -3.8147e-06 253.895 0.0799952H258.135C263.015 -3.8147e-06 266.215 4.48 266.215 9.04C266.215 10.72 266.215 12.48 266.215 14.16C266.215 14.64 265.575 15.2 264.775 15.2H260.615C259.815 15.2 259.335 14.64 259.335 14.16C259.335 13.04 259.335 12.48 259.335 11.36C259.335 9.68 258.375 6.96 256.215 7.04H255.815C253.815 7.04 252.775 9.6 252.775 11.36C252.775 15.84 251.895 18.48 252.295 21.36C252.775 24.32 254.375 26.16 256.215 28.64C257.975 31.2 260.375 33.2 262.695 35.28C263.975 36.56 265.495 38 265.895 39.84Z" fill="#fff"/>
</svg>
